<?xml version="1.0" encoding="UTF-8"?>
<svg xmlns="http://www.w3.org/2000/svg" width="680" height="830" viewBox="0 0 680 830" font-family="PingFang SC, Hiragino Sans GB, Microsoft YaHei, sans-serif">
  <defs>
    <linearGradient id="brand" x1="0" y1="0" x2="1" y2="1">
      <stop offset="0" stop-color="#2563eb"/>
      <stop offset="1" stop-color="#1d4ed8"/>
    </linearGradient>
    <linearGradient id="bg" x1="0" y1="0" x2="0" y2="1">
      <stop offset="0" stop-color="#eef4ff"/>
      <stop offset="1" stop-color="#dbe7ff"/>
    </linearGradient>
    <linearGradient id="header" x1="0" y1="0" x2="1" y2="1">
      <stop offset="0" stop-color="#1e40af"/>
      <stop offset="1" stop-color="#2563eb"/>
    </linearGradient>
    <filter id="shadow" x="-20%" y="-20%" width="140%" height="140%">
      <feDropShadow dx="0" dy="10" stdDeviation="18" flood-color="#1e3a8a" flood-opacity="0.18"/>
    </filter>
  </defs>

  <rect width="680" height="830" fill="url(#bg)"/>

  <!-- card -->
  <rect x="40" y="40" width="600" height="750" rx="34" fill="#ffffff" filter="url(#shadow)"/>

  <!-- header -->
  <path d="M40 74 a34 34 0 0 1 34 -34 h532 a34 34 0 0 1 34 34 v116 h-600 z" fill="url(#header)"/>
  <text x="340" y="102" text-anchor="middle" fill="#cfe0ff" font-size="22" letter-spacing="3">夏邑物资供应分中心</text>
  <text x="340" y="148" text-anchor="middle" fill="#ffffff" font-size="40" font-weight="700" letter-spacing="2">供应链知识模拟考试</text>

  <!-- qr white panel -->
  <rect x="110" y="210" width="460" height="460" rx="24" fill="#ffffff" stroke="#e6eefc" stroke-width="2"/>

  <!-- modules -->
  <g fill="url(#brand)"><rect x="256.08" y="255.10" width="10.77" height="10.77" rx="3.02"/><rect x="278.52" y="255.10" width="10.77" height="10.77" rx="3.02"/><rect x="289.74" y="255.10" width="10.77" height="10.77" rx="3.02"/><rect x="300.96" y="255.10" width="10.77" height="10.77" rx="3.02"/><rect x="312.18" y="255.10" width="10.77" height="10.77" rx="3.02"/><rect x="334.61" y="255.10" width="10.77" height="10.77" rx="3.02"/><rect x="345.83" y="255.10" width="10.77" height="10.77" rx="3.02"/><rect x="357.05" y="255.10" width="10.77" height="10.77" rx="3.02"/><rect x="368.27" y="255.10" width="10.77" height="10.77" rx="3.02"/><rect x="379.49" y="255.10" width="10.77" height="10.77" rx="3.02"/><rect x="390.71" y="255.10" width="10.77" height="10.77" rx="3.02"/><rect x="401.93" y="255.10" width="10.77" height="10.77" rx="3.02"/><rect x="424.37" y="255.10" width="10.77" height="10.77" rx="3.02"/><rect x="244.86" y="266.32" width="10.77" height="10.77" rx="3.02"/><rect x="256.08" y="266.32" width="10.77" height="10.77" rx="3.02"/><rect x="267.30" y="266.32" width="10.77" height="10.77" rx="3.02"/><rect x="278.52" y="266.32" width="10.77" height="10.77" rx="3.02"/><rect x="345.83" y="266.32" width="10.77" height="10.77" rx="3.02"/><rect x="368.27" y="266.32" width="10.77" height="10.77" rx="3.02"/><rect x="244.86" y="277.54" width="10.77" height="10.77" rx="3.02"/><rect x="323.40" y="277.54" width="10.77" height="10.77" rx="3.02"/><rect x="334.61" y="277.54" width="10.77" height="10.77" rx="3.02"/><rect x="368.27" y="277.54" width="10.77" height="10.77" rx="3.02"/><rect x="390.71" y="277.54" width="10.77" height="10.77" rx="3.02"/><rect x="424.37" y="277.54" width="10.77" height="10.77" rx="3.02"/><rect x="244.86" y="288.76" width="10.77" height="10.77" rx="3.02"/><rect x="267.30" y="288.76" width="10.77" height="10.77" rx="3.02"/><rect x="289.74" y="288.76" width="10.77" height="10.77" rx="3.02"/><rect x="300.96" y="288.76" width="10.77" height="10.77" rx="3.02"/><rect x="323.40" y="288.76" width="10.77" height="10.77" rx="3.02"/><rect x="368.27" y="288.76" width="10.77" height="10.77" rx="3.02"/><rect x="379.49" y="288.76" width="10.77" height="10.77" rx="3.02"/><rect x="390.71" y="288.76" width="10.77" height="10.77" rx="3.02"/><rect x="401.93" y="288.76" width="10.77" height="10.77" rx="3.02"/><rect x="413.15" y="288.76" width="10.77" height="10.77" rx="3.02"/><rect x="424.37" y="288.76" width="10.77" height="10.77" rx="3.02"/><rect x="244.86" y="299.98" width="10.77" height="10.77" rx="3.02"/><rect x="267.30" y="299.98" width="10.77" height="10.77" rx="3.02"/><rect x="323.40" y="299.98" width="10.77" height="10.77" rx="3.02"/><rect x="334.61" y="299.98" width="10.77" height="10.77" rx="3.02"/><rect x="345.83" y="299.98" width="10.77" height="10.77" rx="3.02"/><rect x="368.27" y="299.98" width="10.77" height="10.77" rx="3.02"/><rect x="379.49" y="299.98" width="10.77" height="10.77" rx="3.02"/><rect x="390.71" y="299.98" width="10.77" height="10.77" rx="3.02"/><rect x="401.93" y="299.98" width="10.77" height="10.77" rx="3.02"/><rect x="413.15" y="299.98" width="10.77" height="10.77" rx="3.02"/><rect x="424.37" y="299.98" width="10.77" height="10.77" rx="3.02"/><rect x="244.86" y="311.20" width="10.77" height="10.77" rx="3.02"/><rect x="256.08" y="311.20" width="10.77" height="10.77" rx="3.02"/><rect x="278.52" y="311.20" width="10.77" height="10.77" rx="3.02"/><rect x="289.74" y="311.20" width="10.77" height="10.77" rx="3.02"/><rect x="312.18" y="311.20" width="10.77" height="10.77" rx="3.02"/><rect x="323.40" y="311.20" width="10.77" height="10.77" rx="3.02"/><rect x="334.61" y="311.20" width="10.77" height="10.77" rx="3.02"/><rect x="368.27" y="311.20" width="10.77" height="10.77" rx="3.02"/><rect x="390.71" y="311.20" width="10.77" height="10.77" rx="3.02"/><rect x="424.37" y="311.20" width="10.77" height="10.77" rx="3.02"/><rect x="244.86" y="322.42" width="10.77" height="10.77" rx="3.02"/><rect x="267.30" y="322.42" width="10.77" height="10.77" rx="3.02"/><rect x="289.74" y="322.42" width="10.77" height="10.77" rx="3.02"/><rect x="312.18" y="322.42" width="10.77" height="10.77" rx="3.02"/><rect x="334.61" y="322.42" width="10.77" height="10.77" rx="3.02"/><rect x="357.05" y="322.42" width="10.77" height="10.77" rx="3.02"/><rect x="379.49" y="322.42" width="10.77" height="10.77" rx="3.02"/><rect x="401.93" y="322.42" width="10.77" height="10.77" rx="3.02"/><rect x="424.37" y="322.42" width="10.77" height="10.77" rx="3.02"/><rect x="323.40" y="333.64" width="10.77" height="10.77" rx="3.02"/><rect x="334.61" y="333.64" width="10.77" height="10.77" rx="3.02"/><rect x="379.49" y="333.64" width="10.77" height="10.77" rx="3.02"/><rect x="401.93" y="333.64" width="10.77" height="10.77" rx="3.02"/><rect x="177.54" y="344.86" width="10.77" height="10.77" rx="3.02"/><rect x="211.20" y="344.86" width="10.77" height="10.77" rx="3.02"/><rect x="222.42" y="344.86" width="10.77" height="10.77" rx="3.02"/><rect x="233.64" y="344.86" width="10.77" height="10.77" rx="3.02"/><rect x="244.86" y="344.86" width="10.77" height="10.77" rx="3.02"/><rect x="256.08" y="344.86" width="10.77" height="10.77" rx="3.02"/><rect x="267.30" y="344.86" width="10.77" height="10.77" rx="3.02"/><rect x="323.40" y="344.86" width="10.77" height="10.77" rx="3.02"/><rect x="334.61" y="344.86" width="10.77" height="10.77" rx="3.02"/><rect x="345.83" y="344.86" width="10.77" height="10.77" rx="3.02"/><rect x="357.05" y="344.86" width="10.77" height="10.77" rx="3.02"/><rect x="368.27" y="344.86" width="10.77" height="10.77" rx="3.02"/><rect x="401.93" y="344.86" width="10.77" height="10.77" rx="3.02"/><rect x="413.15" y="344.86" width="10.77" height="10.77" rx="3.02"/><rect x="435.59" y="344.86" width="10.77" height="10.77" rx="3.02"/><rect x="458.03" y="344.86" width="10.77" height="10.77" rx="3.02"/><rect x="469.25" y="344.86" width="10.77" height="10.77" rx="3.02"/><rect x="480.47" y="344.86" width="10.77" height="10.77" rx="3.02"/><rect x="491.69" y="344.86" width="10.77" height="10.77" rx="3.02"/><rect x="502.91" y="344.86" width="10.77" height="10.77" rx="3.02"/><rect x="155.10" y="356.08" width="10.77" height="10.77" rx="3.02"/><rect x="177.54" y="356.08" width="10.77" height="10.77" rx="3.02"/><rect x="188.76" y="356.08" width="10.77" height="10.77" rx="3.02"/><rect x="199.98" y="356.08" width="10.77" height="10.77" rx="3.02"/><rect x="211.20" y="356.08" width="10.77" height="10.77" rx="3.02"/><rect x="256.08" y="356.08" width="10.77" height="10.77" rx="3.02"/><rect x="278.52" y="356.08" width="10.77" height="10.77" rx="3.02"/><rect x="289.74" y="356.08" width="10.77" height="10.77" rx="3.02"/><rect x="300.96" y="356.08" width="10.77" height="10.77" rx="3.02"/><rect x="312.18" y="356.08" width="10.77" height="10.77" rx="3.02"/><rect x="334.61" y="356.08" width="10.77" height="10.77" rx="3.02"/><rect x="357.05" y="356.08" width="10.77" height="10.77" rx="3.02"/><rect x="390.71" y="356.08" width="10.77" height="10.77" rx="3.02"/><rect x="413.15" y="356.08" width="10.77" height="10.77" rx="3.02"/><rect x="424.37" y="356.08" width="10.77" height="10.77" rx="3.02"/><rect x="435.59" y="356.08" width="10.77" height="10.77" rx="3.02"/><rect x="446.81" y="356.08" width="10.77" height="10.77" rx="3.02"/><rect x="458.03" y="356.08" width="10.77" height="10.77" rx="3.02"/><rect x="480.47" y="356.08" width="10.77" height="10.77" rx="3.02"/><rect x="514.13" y="356.08" width="10.77" height="10.77" rx="3.02"/><rect x="166.32" y="367.30" width="10.77" height="10.77" rx="3.02"/><rect x="177.54" y="367.30" width="10.77" height="10.77" rx="3.02"/><rect x="211.20" y="367.30" width="10.77" height="10.77" rx="3.02"/><rect x="222.42" y="367.30" width="10.77" height="10.77" rx="3.02"/><rect x="244.86" y="367.30" width="10.77" height="10.77" rx="3.02"/><rect x="256.08" y="367.30" width="10.77" height="10.77" rx="3.02"/><rect x="278.52" y="367.30" width="10.77" height="10.77" rx="3.02"/><rect x="312.18" y="367.30" width="10.77" height="10.77" rx="3.02"/><rect x="334.61" y="367.30" width="10.77" height="10.77" rx="3.02"/><rect x="357.05" y="367.30" width="10.77" height="10.77" rx="3.02"/><rect x="413.15" y="367.30" width="10.77" height="10.77" rx="3.02"/><rect x="446.81" y="367.30" width="10.77" height="10.77" rx="3.02"/><rect x="458.03" y="367.30" width="10.77" height="10.77" rx="3.02"/><rect x="469.25" y="367.30" width="10.77" height="10.77" rx="3.02"/><rect x="491.69" y="367.30" width="10.77" height="10.77" rx="3.02"/><rect x="514.13" y="367.30" width="10.77" height="10.77" rx="3.02"/><rect x="155.10" y="378.52" width="10.77" height="10.77" rx="3.02"/><rect x="188.76" y="378.52" width="10.77" height="10.77" rx="3.02"/><rect x="199.98" y="378.52" width="10.77" height="10.77" rx="3.02"/><rect x="233.64" y="378.52" width="10.77" height="10.77" rx="3.02"/><rect x="256.08" y="378.52" width="10.77" height="10.77" rx="3.02"/><rect x="267.30" y="378.52" width="10.77" height="10.77" rx="3.02"/><rect x="278.52" y="378.52" width="10.77" height="10.77" rx="3.02"/><rect x="289.74" y="378.52" width="10.77" height="10.77" rx="3.02"/><rect x="300.96" y="378.52" width="10.77" height="10.77" rx="3.02"/><rect x="312.18" y="378.52" width="10.77" height="10.77" rx="3.02"/><rect x="357.05" y="378.52" width="10.77" height="10.77" rx="3.02"/><rect x="379.49" y="378.52" width="10.77" height="10.77" rx="3.02"/><rect x="390.71" y="378.52" width="10.77" height="10.77" rx="3.02"/><rect x="424.37" y="378.52" width="10.77" height="10.77" rx="3.02"/><rect x="435.59" y="378.52" width="10.77" height="10.77" rx="3.02"/><rect x="446.81" y="378.52" width="10.77" height="10.77" rx="3.02"/><rect x="458.03" y="378.52" width="10.77" height="10.77" rx="3.02"/><rect x="502.91" y="378.52" width="10.77" height="10.77" rx="3.02"/><rect x="514.13" y="378.52" width="10.77" height="10.77" rx="3.02"/><rect x="166.32" y="389.74" width="10.77" height="10.77" rx="3.02"/><rect x="177.54" y="389.74" width="10.77" height="10.77" rx="3.02"/><rect x="188.76" y="389.74" width="10.77" height="10.77" rx="3.02"/><rect x="222.42" y="389.74" width="10.77" height="10.77" rx="3.02"/><rect x="233.64" y="389.74" width="10.77" height="10.77" rx="3.02"/><rect x="256.08" y="389.74" width="10.77" height="10.77" rx="3.02"/><rect x="390.71" y="389.74" width="10.77" height="10.77" rx="3.02"/><rect x="413.15" y="389.74" width="10.77" height="10.77" rx="3.02"/><rect x="424.37" y="389.74" width="10.77" height="10.77" rx="3.02"/><rect x="446.81" y="389.74" width="10.77" height="10.77" rx="3.02"/><rect x="458.03" y="389.74" width="10.77" height="10.77" rx="3.02"/><rect x="469.25" y="389.74" width="10.77" height="10.77" rx="3.02"/><rect x="480.47" y="389.74" width="10.77" height="10.77" rx="3.02"/><rect x="514.13" y="389.74" width="10.77" height="10.77" rx="3.02"/><rect x="155.10" y="400.96" width="10.77" height="10.77" rx="3.02"/><rect x="166.32" y="400.96" width="10.77" height="10.77" rx="3.02"/><rect x="177.54" y="400.96" width="10.77" height="10.77" rx="3.02"/><rect x="188.76" y="400.96" width="10.77" height="10.77" rx="3.02"/><rect x="199.98" y="400.96" width="10.77" height="10.77" rx="3.02"/><rect x="211.20" y="400.96" width="10.77" height="10.77" rx="3.02"/><rect x="233.64" y="400.96" width="10.77" height="10.77" rx="3.02"/><rect x="256.08" y="400.96" width="10.77" height="10.77" rx="3.02"/><rect x="390.71" y="400.96" width="10.77" height="10.77" rx="3.02"/><rect x="413.15" y="400.96" width="10.77" height="10.77" rx="3.02"/><rect x="424.37" y="400.96" width="10.77" height="10.77" rx="3.02"/><rect x="446.81" y="400.96" width="10.77" height="10.77" rx="3.02"/><rect x="458.03" y="400.96" width="10.77" height="10.77" rx="3.02"/><rect x="469.25" y="400.96" width="10.77" height="10.77" rx="3.02"/><rect x="480.47" y="400.96" width="10.77" height="10.77" rx="3.02"/><rect x="514.13" y="400.96" width="10.77" height="10.77" rx="3.02"/><rect x="166.32" y="412.18" width="10.77" height="10.77" rx="3.02"/><rect x="177.54" y="412.18" width="10.77" height="10.77" rx="3.02"/><rect x="199.98" y="412.18" width="10.77" height="10.77" rx="3.02"/><rect x="222.42" y="412.18" width="10.77" height="10.77" rx="3.02"/><rect x="256.08" y="412.18" width="10.77" height="10.77" rx="3.02"/><rect x="413.15" y="412.18" width="10.77" height="10.77" rx="3.02"/><rect x="435.59" y="412.18" width="10.77" height="10.77" rx="3.02"/><rect x="446.81" y="412.18" width="10.77" height="10.77" rx="3.02"/><rect x="458.03" y="412.18" width="10.77" height="10.77" rx="3.02"/><rect x="491.69" y="412.18" width="10.77" height="10.77" rx="3.02"/><rect x="514.13" y="412.18" width="10.77" height="10.77" rx="3.02"/><rect x="188.76" y="423.40" width="10.77" height="10.77" rx="3.02"/><rect x="211.20" y="423.40" width="10.77" height="10.77" rx="3.02"/><rect x="233.64" y="423.40" width="10.77" height="10.77" rx="3.02"/><rect x="244.86" y="423.40" width="10.77" height="10.77" rx="3.02"/><rect x="256.08" y="423.40" width="10.77" height="10.77" rx="3.02"/><rect x="267.30" y="423.40" width="10.77" height="10.77" rx="3.02"/><rect x="278.52" y="423.40" width="10.77" height="10.77" rx="3.02"/><rect x="401.93" y="423.40" width="10.77" height="10.77" rx="3.02"/><rect x="435.59" y="423.40" width="10.77" height="10.77" rx="3.02"/><rect x="458.03" y="423.40" width="10.77" height="10.77" rx="3.02"/><rect x="469.25" y="423.40" width="10.77" height="10.77" rx="3.02"/><rect x="480.47" y="423.40" width="10.77" height="10.77" rx="3.02"/><rect x="155.10" y="434.61" width="10.77" height="10.77" rx="3.02"/><rect x="199.98" y="434.61" width="10.77" height="10.77" rx="3.02"/><rect x="211.20" y="434.61" width="10.77" height="10.77" rx="3.02"/><rect x="222.42" y="434.61" width="10.77" height="10.77" rx="3.02"/><rect x="244.86" y="434.61" width="10.77" height="10.77" rx="3.02"/><rect x="256.08" y="434.61" width="10.77" height="10.77" rx="3.02"/><rect x="267.30" y="434.61" width="10.77" height="10.77" rx="3.02"/><rect x="278.52" y="434.61" width="10.77" height="10.77" rx="3.02"/><rect x="401.93" y="434.61" width="10.77" height="10.77" rx="3.02"/><rect x="446.81" y="434.61" width="10.77" height="10.77" rx="3.02"/><rect x="458.03" y="434.61" width="10.77" height="10.77" rx="3.02"/><rect x="177.54" y="445.83" width="10.77" height="10.77" rx="3.02"/><rect x="199.98" y="445.83" width="10.77" height="10.77" rx="3.02"/><rect x="233.64" y="445.83" width="10.77" height="10.77" rx="3.02"/><rect x="278.52" y="445.83" width="10.77" height="10.77" rx="3.02"/><rect x="390.71" y="445.83" width="10.77" height="10.77" rx="3.02"/><rect x="413.15" y="445.83" width="10.77" height="10.77" rx="3.02"/><rect x="446.81" y="445.83" width="10.77" height="10.77" rx="3.02"/><rect x="458.03" y="445.83" width="10.77" height="10.77" rx="3.02"/><rect x="491.69" y="445.83" width="10.77" height="10.77" rx="3.02"/><rect x="514.13" y="445.83" width="10.77" height="10.77" rx="3.02"/><rect x="166.32" y="457.05" width="10.77" height="10.77" rx="3.02"/><rect x="177.54" y="457.05" width="10.77" height="10.77" rx="3.02"/><rect x="211.20" y="457.05" width="10.77" height="10.77" rx="3.02"/><rect x="222.42" y="457.05" width="10.77" height="10.77" rx="3.02"/><rect x="278.52" y="457.05" width="10.77" height="10.77" rx="3.02"/><rect x="413.15" y="457.05" width="10.77" height="10.77" rx="3.02"/><rect x="435.59" y="457.05" width="10.77" height="10.77" rx="3.02"/><rect x="446.81" y="457.05" width="10.77" height="10.77" rx="3.02"/><rect x="458.03" y="457.05" width="10.77" height="10.77" rx="3.02"/><rect x="469.25" y="457.05" width="10.77" height="10.77" rx="3.02"/><rect x="480.47" y="457.05" width="10.77" height="10.77" rx="3.02"/><rect x="491.69" y="457.05" width="10.77" height="10.77" rx="3.02"/><rect x="514.13" y="457.05" width="10.77" height="10.77" rx="3.02"/><rect x="166.32" y="468.27" width="10.77" height="10.77" rx="3.02"/><rect x="199.98" y="468.27" width="10.77" height="10.77" rx="3.02"/><rect x="211.20" y="468.27" width="10.77" height="10.77" rx="3.02"/><rect x="233.64" y="468.27" width="10.77" height="10.77" rx="3.02"/><rect x="267.30" y="468.27" width="10.77" height="10.77" rx="3.02"/><rect x="278.52" y="468.27" width="10.77" height="10.77" rx="3.02"/><rect x="413.15" y="468.27" width="10.77" height="10.77" rx="3.02"/><rect x="435.59" y="468.27" width="10.77" height="10.77" rx="3.02"/><rect x="480.47" y="468.27" width="10.77" height="10.77" rx="3.02"/><rect x="155.10" y="479.49" width="10.77" height="10.77" rx="3.02"/><rect x="166.32" y="479.49" width="10.77" height="10.77" rx="3.02"/><rect x="199.98" y="479.49" width="10.77" height="10.77" rx="3.02"/><rect x="222.42" y="479.49" width="10.77" height="10.77" rx="3.02"/><rect x="256.08" y="479.49" width="10.77" height="10.77" rx="3.02"/><rect x="413.15" y="479.49" width="10.77" height="10.77" rx="3.02"/><rect x="424.37" y="479.49" width="10.77" height="10.77" rx="3.02"/><rect x="435.59" y="479.49" width="10.77" height="10.77" rx="3.02"/><rect x="446.81" y="479.49" width="10.77" height="10.77" rx="3.02"/><rect x="458.03" y="479.49" width="10.77" height="10.77" rx="3.02"/><rect x="514.13" y="479.49" width="10.77" height="10.77" rx="3.02"/><rect x="166.32" y="490.71" width="10.77" height="10.77" rx="3.02"/><rect x="177.54" y="490.71" width="10.77" height="10.77" rx="3.02"/><rect x="188.76" y="490.71" width="10.77" height="10.77" rx="3.02"/><rect x="199.98" y="490.71" width="10.77" height="10.77" rx="3.02"/><rect x="211.20" y="490.71" width="10.77" height="10.77" rx="3.02"/><rect x="244.86" y="490.71" width="10.77" height="10.77" rx="3.02"/><rect x="278.52" y="490.71" width="10.77" height="10.77" rx="3.02"/><rect x="300.96" y="490.71" width="10.77" height="10.77" rx="3.02"/><rect x="312.18" y="490.71" width="10.77" height="10.77" rx="3.02"/><rect x="334.61" y="490.71" width="10.77" height="10.77" rx="3.02"/><rect x="345.83" y="490.71" width="10.77" height="10.77" rx="3.02"/><rect x="357.05" y="490.71" width="10.77" height="10.77" rx="3.02"/><rect x="368.27" y="490.71" width="10.77" height="10.77" rx="3.02"/><rect x="379.49" y="490.71" width="10.77" height="10.77" rx="3.02"/><rect x="390.71" y="490.71" width="10.77" height="10.77" rx="3.02"/><rect x="424.37" y="490.71" width="10.77" height="10.77" rx="3.02"/><rect x="435.59" y="490.71" width="10.77" height="10.77" rx="3.02"/><rect x="458.03" y="490.71" width="10.77" height="10.77" rx="3.02"/><rect x="480.47" y="490.71" width="10.77" height="10.77" rx="3.02"/><rect x="491.69" y="490.71" width="10.77" height="10.77" rx="3.02"/><rect x="502.91" y="490.71" width="10.77" height="10.77" rx="3.02"/><rect x="514.13" y="490.71" width="10.77" height="10.77" rx="3.02"/><rect x="155.10" y="501.93" width="10.77" height="10.77" rx="3.02"/><rect x="166.32" y="501.93" width="10.77" height="10.77" rx="3.02"/><rect x="188.76" y="501.93" width="10.77" height="10.77" rx="3.02"/><rect x="199.98" y="501.93" width="10.77" height="10.77" rx="3.02"/><rect x="211.20" y="501.93" width="10.77" height="10.77" rx="3.02"/><rect x="222.42" y="501.93" width="10.77" height="10.77" rx="3.02"/><rect x="244.86" y="501.93" width="10.77" height="10.77" rx="3.02"/><rect x="267.30" y="501.93" width="10.77" height="10.77" rx="3.02"/><rect x="289.74" y="501.93" width="10.77" height="10.77" rx="3.02"/><rect x="334.61" y="501.93" width="10.77" height="10.77" rx="3.02"/><rect x="345.83" y="501.93" width="10.77" height="10.77" rx="3.02"/><rect x="357.05" y="501.93" width="10.77" height="10.77" rx="3.02"/><rect x="368.27" y="501.93" width="10.77" height="10.77" rx="3.02"/><rect x="379.49" y="501.93" width="10.77" height="10.77" rx="3.02"/><rect x="424.37" y="501.93" width="10.77" height="10.77" rx="3.02"/><rect x="435.59" y="501.93" width="10.77" height="10.77" rx="3.02"/><rect x="446.81" y="501.93" width="10.77" height="10.77" rx="3.02"/><rect x="458.03" y="501.93" width="10.77" height="10.77" rx="3.02"/><rect x="514.13" y="501.93" width="10.77" height="10.77" rx="3.02"/><rect x="233.64" y="513.15" width="10.77" height="10.77" rx="3.02"/><rect x="289.74" y="513.15" width="10.77" height="10.77" rx="3.02"/><rect x="334.61" y="513.15" width="10.77" height="10.77" rx="3.02"/><rect x="345.83" y="513.15" width="10.77" height="10.77" rx="3.02"/><rect x="368.27" y="513.15" width="10.77" height="10.77" rx="3.02"/><rect x="379.49" y="513.15" width="10.77" height="10.77" rx="3.02"/><rect x="413.15" y="513.15" width="10.77" height="10.77" rx="3.02"/><rect x="424.37" y="513.15" width="10.77" height="10.77" rx="3.02"/><rect x="458.03" y="513.15" width="10.77" height="10.77" rx="3.02"/><rect x="469.25" y="513.15" width="10.77" height="10.77" rx="3.02"/><rect x="480.47" y="513.15" width="10.77" height="10.77" rx="3.02"/><rect x="514.13" y="513.15" width="10.77" height="10.77" rx="3.02"/><rect x="155.10" y="524.37" width="10.77" height="10.77" rx="3.02"/><rect x="166.32" y="524.37" width="10.77" height="10.77" rx="3.02"/><rect x="177.54" y="524.37" width="10.77" height="10.77" rx="3.02"/><rect x="188.76" y="524.37" width="10.77" height="10.77" rx="3.02"/><rect x="199.98" y="524.37" width="10.77" height="10.77" rx="3.02"/><rect x="211.20" y="524.37" width="10.77" height="10.77" rx="3.02"/><rect x="222.42" y="524.37" width="10.77" height="10.77" rx="3.02"/><rect x="244.86" y="524.37" width="10.77" height="10.77" rx="3.02"/><rect x="256.08" y="524.37" width="10.77" height="10.77" rx="3.02"/><rect x="289.74" y="524.37" width="10.77" height="10.77" rx="3.02"/><rect x="345.83" y="524.37" width="10.77" height="10.77" rx="3.02"/><rect x="357.05" y="524.37" width="10.77" height="10.77" rx="3.02"/><rect x="368.27" y="524.37" width="10.77" height="10.77" rx="3.02"/><rect x="379.49" y="524.37" width="10.77" height="10.77" rx="3.02"/><rect x="424.37" y="524.37" width="10.77" height="10.77" rx="3.02"/><rect x="435.59" y="524.37" width="10.77" height="10.77" rx="3.02"/><rect x="446.81" y="524.37" width="10.77" height="10.77" rx="3.02"/><rect x="458.03" y="524.37" width="10.77" height="10.77" rx="3.02"/><rect x="469.25" y="524.37" width="10.77" height="10.77" rx="3.02"/><rect x="480.47" y="524.37" width="10.77" height="10.77" rx="3.02"/><rect x="502.91" y="524.37" width="10.77" height="10.77" rx="3.02"/><rect x="244.86" y="535.59" width="10.77" height="10.77" rx="3.02"/><rect x="256.08" y="535.59" width="10.77" height="10.77" rx="3.02"/><rect x="289.74" y="535.59" width="10.77" height="10.77" rx="3.02"/><rect x="300.96" y="535.59" width="10.77" height="10.77" rx="3.02"/><rect x="312.18" y="535.59" width="10.77" height="10.77" rx="3.02"/><rect x="323.40" y="535.59" width="10.77" height="10.77" rx="3.02"/><rect x="345.83" y="535.59" width="10.77" height="10.77" rx="3.02"/><rect x="368.27" y="535.59" width="10.77" height="10.77" rx="3.02"/><rect x="424.37" y="535.59" width="10.77" height="10.77" rx="3.02"/><rect x="469.25" y="535.59" width="10.77" height="10.77" rx="3.02"/><rect x="480.47" y="535.59" width="10.77" height="10.77" rx="3.02"/><rect x="491.69" y="535.59" width="10.77" height="10.77" rx="3.02"/><rect x="514.13" y="535.59" width="10.77" height="10.77" rx="3.02"/><rect x="244.86" y="546.81" width="10.77" height="10.77" rx="3.02"/><rect x="278.52" y="546.81" width="10.77" height="10.77" rx="3.02"/><rect x="300.96" y="546.81" width="10.77" height="10.77" rx="3.02"/><rect x="323.40" y="546.81" width="10.77" height="10.77" rx="3.02"/><rect x="334.61" y="546.81" width="10.77" height="10.77" rx="3.02"/><rect x="345.83" y="546.81" width="10.77" height="10.77" rx="3.02"/><rect x="357.05" y="546.81" width="10.77" height="10.77" rx="3.02"/><rect x="368.27" y="546.81" width="10.77" height="10.77" rx="3.02"/><rect x="390.71" y="546.81" width="10.77" height="10.77" rx="3.02"/><rect x="401.93" y="546.81" width="10.77" height="10.77" rx="3.02"/><rect x="424.37" y="546.81" width="10.77" height="10.77" rx="3.02"/><rect x="446.81" y="546.81" width="10.77" height="10.77" rx="3.02"/><rect x="469.25" y="546.81" width="10.77" height="10.77" rx="3.02"/><rect x="480.47" y="546.81" width="10.77" height="10.77" rx="3.02"/><rect x="514.13" y="546.81" width="10.77" height="10.77" rx="3.02"/><rect x="244.86" y="558.03" width="10.77" height="10.77" rx="3.02"/><rect x="256.08" y="558.03" width="10.77" height="10.77" rx="3.02"/><rect x="289.74" y="558.03" width="10.77" height="10.77" rx="3.02"/><rect x="300.96" y="558.03" width="10.77" height="10.77" rx="3.02"/><rect x="334.61" y="558.03" width="10.77" height="10.77" rx="3.02"/><rect x="357.05" y="558.03" width="10.77" height="10.77" rx="3.02"/><rect x="368.27" y="558.03" width="10.77" height="10.77" rx="3.02"/><rect x="401.93" y="558.03" width="10.77" height="10.77" rx="3.02"/><rect x="413.15" y="558.03" width="10.77" height="10.77" rx="3.02"/><rect x="424.37" y="558.03" width="10.77" height="10.77" rx="3.02"/><rect x="469.25" y="558.03" width="10.77" height="10.77" rx="3.02"/><rect x="480.47" y="558.03" width="10.77" height="10.77" rx="3.02"/><rect x="502.91" y="558.03" width="10.77" height="10.77" rx="3.02"/><rect x="514.13" y="558.03" width="10.77" height="10.77" rx="3.02"/><rect x="267.30" y="569.25" width="10.77" height="10.77" rx="3.02"/><rect x="312.18" y="569.25" width="10.77" height="10.77" rx="3.02"/><rect x="345.83" y="569.25" width="10.77" height="10.77" rx="3.02"/><rect x="390.71" y="569.25" width="10.77" height="10.77" rx="3.02"/><rect x="401.93" y="569.25" width="10.77" height="10.77" rx="3.02"/><rect x="413.15" y="569.25" width="10.77" height="10.77" rx="3.02"/><rect x="424.37" y="569.25" width="10.77" height="10.77" rx="3.02"/><rect x="435.59" y="569.25" width="10.77" height="10.77" rx="3.02"/><rect x="446.81" y="569.25" width="10.77" height="10.77" rx="3.02"/><rect x="458.03" y="569.25" width="10.77" height="10.77" rx="3.02"/><rect x="469.25" y="569.25" width="10.77" height="10.77" rx="3.02"/><rect x="267.30" y="580.47" width="10.77" height="10.77" rx="3.02"/><rect x="278.52" y="580.47" width="10.77" height="10.77" rx="3.02"/><rect x="289.74" y="580.47" width="10.77" height="10.77" rx="3.02"/><rect x="300.96" y="580.47" width="10.77" height="10.77" rx="3.02"/><rect x="323.40" y="580.47" width="10.77" height="10.77" rx="3.02"/><rect x="390.71" y="580.47" width="10.77" height="10.77" rx="3.02"/><rect x="401.93" y="580.47" width="10.77" height="10.77" rx="3.02"/><rect x="413.15" y="580.47" width="10.77" height="10.77" rx="3.02"/><rect x="424.37" y="580.47" width="10.77" height="10.77" rx="3.02"/><rect x="435.59" y="580.47" width="10.77" height="10.77" rx="3.02"/><rect x="458.03" y="580.47" width="10.77" height="10.77" rx="3.02"/><rect x="469.25" y="580.47" width="10.77" height="10.77" rx="3.02"/><rect x="480.47" y="580.47" width="10.77" height="10.77" rx="3.02"/><rect x="502.91" y="580.47" width="10.77" height="10.77" rx="3.02"/><rect x="244.86" y="591.69" width="10.77" height="10.77" rx="3.02"/><rect x="256.08" y="591.69" width="10.77" height="10.77" rx="3.02"/><rect x="300.96" y="591.69" width="10.77" height="10.77" rx="3.02"/><rect x="312.18" y="591.69" width="10.77" height="10.77" rx="3.02"/><rect x="323.40" y="591.69" width="10.77" height="10.77" rx="3.02"/><rect x="334.61" y="591.69" width="10.77" height="10.77" rx="3.02"/><rect x="345.83" y="591.69" width="10.77" height="10.77" rx="3.02"/><rect x="368.27" y="591.69" width="10.77" height="10.77" rx="3.02"/><rect x="379.49" y="591.69" width="10.77" height="10.77" rx="3.02"/><rect x="401.93" y="591.69" width="10.77" height="10.77" rx="3.02"/><rect x="424.37" y="591.69" width="10.77" height="10.77" rx="3.02"/><rect x="469.25" y="591.69" width="10.77" height="10.77" rx="3.02"/><rect x="480.47" y="591.69" width="10.77" height="10.77" rx="3.02"/><rect x="502.91" y="591.69" width="10.77" height="10.77" rx="3.02"/><rect x="514.13" y="591.69" width="10.77" height="10.77" rx="3.02"/><rect x="256.08" y="602.91" width="10.77" height="10.77" rx="3.02"/><rect x="267.30" y="602.91" width="10.77" height="10.77" rx="3.02"/><rect x="278.52" y="602.91" width="10.77" height="10.77" rx="3.02"/><rect x="300.96" y="602.91" width="10.77" height="10.77" rx="3.02"/><rect x="312.18" y="602.91" width="10.77" height="10.77" rx="3.02"/><rect x="323.40" y="602.91" width="10.77" height="10.77" rx="3.02"/><rect x="334.61" y="602.91" width="10.77" height="10.77" rx="3.02"/><rect x="368.27" y="602.91" width="10.77" height="10.77" rx="3.02"/><rect x="379.49" y="602.91" width="10.77" height="10.77" rx="3.02"/><rect x="401.93" y="602.91" width="10.77" height="10.77" rx="3.02"/><rect x="424.37" y="602.91" width="10.77" height="10.77" rx="3.02"/><rect x="435.59" y="602.91" width="10.77" height="10.77" rx="3.02"/><rect x="256.08" y="614.13" width="10.77" height="10.77" rx="3.02"/><rect x="289.74" y="614.13" width="10.77" height="10.77" rx="3.02"/><rect x="323.40" y="614.13" width="10.77" height="10.77" rx="3.02"/><rect x="334.61" y="614.13" width="10.77" height="10.77" rx="3.02"/><rect x="345.83" y="614.13" width="10.77" height="10.77" rx="3.02"/><rect x="357.05" y="614.13" width="10.77" height="10.77" rx="3.02"/><rect x="379.49" y="614.13" width="10.77" height="10.77" rx="3.02"/><rect x="424.37" y="614.13" width="10.77" height="10.77" rx="3.02"/><rect x="435.59" y="614.13" width="10.77" height="10.77" rx="3.02"/><rect x="446.81" y="614.13" width="10.77" height="10.77" rx="3.02"/><rect x="469.25" y="614.13" width="10.77" height="10.77" rx="3.02"/><rect x="480.47" y="614.13" width="10.77" height="10.77" rx="3.02"/><rect x="491.69" y="614.13" width="10.77" height="10.77" rx="3.02"/><rect x="514.13" y="614.13" width="10.77" height="10.77" rx="3.02"/></g>
  
    <rect x="154.88" y="254.88" width="78.54" height="78.54" rx="22.44" fill="url(#brand)"/>
    <rect x="166.10" y="266.10" width="56.10" height="56.10" rx="15.71" fill="#ffffff"/>
    <rect x="177.32" y="277.32" width="33.66" height="33.66" rx="10.10" fill="url(#brand)"/>
    <rect x="446.59" y="254.88" width="78.54" height="78.54" rx="22.44" fill="url(#brand)"/>
    <rect x="457.80" y="266.10" width="56.10" height="56.10" rx="15.71" fill="#ffffff"/>
    <rect x="469.02" y="277.32" width="33.66" height="33.66" rx="10.10" fill="url(#brand)"/>
    <rect x="154.88" y="546.59" width="78.54" height="78.54" rx="22.44" fill="url(#brand)"/>
    <rect x="166.10" y="557.80" width="56.10" height="56.10" rx="15.71" fill="#ffffff"/>
    <rect x="177.32" y="569.02" width="33.66" height="33.66" rx="10.10" fill="url(#brand)"/>

  <!-- center logo -->
  <rect x="294.00" y="394.00" width="92.00" height="92.00" rx="23.92" fill="url(#brand)"/>
  <text x="340.00" y="458.40" text-anchor="middle" fill="#ffffff" font-size="52" font-weight="800">考</text>

  <!-- footer -->
  <text x="340" y="728" text-anchor="middle" fill="#1e293b" font-size="26" font-weight="600">微信扫码 · 在线答题</text>
  <text x="340" y="764" text-anchor="middle" fill="#64748b" font-size="20" letter-spacing="1">gongdianju.pages.dev</text>
</svg>